<svg width="20" height="20" marginRight="8" viewBox="0 0 20 20" fill="none" xmlns="http://www.w3.org/2000/svg">
<rect width="20" height="20" rx="10" fill="#E1F5FE"/>
<path d="M6.01882 8.28553L10.3426 5.88344C10.7869 5.63657 11.333 5.95789 11.333 6.46621V13.5335C11.333 14.0418 10.7869 14.3632 10.3426 14.1163L6.01882 11.7142C5.59553 11.479 5.33301 11.0329 5.33301 10.5487V9.45107C5.33301 8.96685 5.59553 8.52069 6.01882 8.28553Z" fill="#03A9F4"/>
<path d="M13.333 11.3332V8.66653C13.833 8.66653 13.9997 9.23796 13.9997 9.99987C13.9997 10.7618 13.833 11.3332 13.333 11.3332Z" fill="#03A9F4"/>
<path d="M6.01882 8.28553L10.3426 5.88344C10.7869 5.63657 11.333 5.95789 11.333 6.46621V13.5335C11.333 14.0418 10.7869 14.3632 10.3426 14.1163L6.01882 11.7142C5.59553 11.479 5.33301 11.0329 5.33301 10.5487V9.45107C5.33301 8.96685 5.59553 8.52069 6.01882 8.28553Z" stroke="#03A9F4" stroke-linejoin="round"/>
<path d="M13.333 11.3332V8.66653C13.833 8.66653 13.9997 9.23796 13.9997 9.99987C13.9997 10.7618 13.833 11.3332 13.333 11.3332Z" stroke="#03A9F4" stroke-linejoin="round"/>
</svg>
