<svg width="40" height="40" viewBox="0 0 41 40" fill="none" xmlns="http://www.w3.org/2000/svg">
<path d="M14 9C7.37258 9 2 14.3726 2 21C2 23.5496 2.79511 25.9134 4.1509 27.8571L2.85714 31.2857L6.57612 30.4286C8.61863 32.039 11.1971 33 14 33C20.6274 33 26 27.6274 26 21C26 14.3726 20.6274 9 14 9Z" fill="#E4E4E7"/>
<path d="M15 27C15 33.6274 20.3726 39 27 39C29.5496 39 31.9134 38.2049 33.8571 36.8491L37.2857 38.1429L36.4286 34.4239C38.039 32.3814 39 29.8029 39 27C39 20.3726 33.6274 15 27 15C20.3726 15 15 20.3726 15 27Z" fill="#29B6F6"/>
</svg>
