<svg width="41" height="40" viewBox="0 0 41 40" fill="none" xmlns="http://www.w3.org/2000/svg">
<g clip-path="url(#clip0_575_2443)">
<rect x="2.75" y="10" width="36" height="20" rx="2" fill="#F0F0F0"/>
<path d="M2.75 12C2.75 10.8954 3.64543 10 4.75 10H36.75C37.8546 10 38.75 10.8954 38.75 12V17H2.75V12Z" fill="#A1A1AA"/>
<circle cx="7.25" cy="13.5" r="1.5" fill="#E4E4E7"/>
<circle cx="12.25" cy="13.5" r="1.5" fill="#E4E4E7"/>
<circle cx="17.25" cy="13.5" r="1.5" fill="#E4E4E7"/>
<path d="M38.4573 35.9999C38.5502 36.0928 38.6239 36.203 38.6741 36.3244C38.7244 36.4457 38.7503 36.5758 38.7503 36.7071C38.7503 36.8385 38.7244 36.9685 38.6741 37.0899C38.6239 37.2112 38.5502 37.3215 38.4573 37.4143L38.1648 37.7068C38.0719 37.7997 37.9617 37.8734 37.8404 37.9236C37.719 37.9739 37.589 37.9998 37.4576 37.9998C37.3263 37.9998 37.1962 37.9739 37.0749 37.9236C36.9535 37.8734 36.8433 37.7997 36.7504 37.7068L33.2973 34.2543L31.9298 37.4006C31.8532 37.579 31.7257 37.731 31.5634 37.8376C31.401 37.9441 31.2109 38.0006 31.0167 37.9999H30.9679C30.7654 37.9915 30.5705 37.921 30.4094 37.798C30.2483 37.675 30.1289 37.5055 30.0673 37.3124L26.8004 27.3074C26.7431 27.1324 26.7355 26.9448 26.7783 26.7657C26.8211 26.5865 26.9127 26.4227 27.043 26.2925C27.1732 26.1622 27.337 26.0706 27.5162 26.0278C27.6953 25.985 27.8829 25.9926 28.0579 26.0499L38.0629 29.3168C38.2541 29.3808 38.4216 29.5011 38.5432 29.6619C38.6648 29.8227 38.735 30.0165 38.7446 30.2179C38.7541 30.4193 38.7025 30.6189 38.5966 30.7905C38.4907 30.962 38.3354 31.0976 38.1511 31.1793L35.0048 32.5468L38.4573 35.9999Z" fill="#29B6F6"/>
</g>
<defs>
<clipPath id="clip0_575_2443">
<rect x="0.75" width="40" height="40" fill="white"/>
</clipPath>
</defs>
</svg>
