<svg width="14" height="16" viewBox="0 0 14 16" fill="none" xmlns="http://www.w3.org/2000/svg">
<g clip-path="url(#clip0_633_2885)">
<path d="M2 8C2 10.7625 4.2375 13 7 13C7.90312 13 8.75 12.7594 9.48125 12.3406L7.23125 9.64063C6.87812 9.21563 6.93437 8.58438 7.35937 8.23125C7.78437 7.87813 8.41562 7.93438 8.76875 8.35938L10.9844 11.0188C11.6219 10.1813 12 9.13438 12 8C12 5.2375 9.7625 3 7 3C4.2375 3 2 5.2375 2 8ZM10.7781 13.8938C9.6875 14.5938 8.39062 15 7 15C3.13437 15 0 11.8656 0 8C0 4.13438 3.13437 1 7 1C10.8656 1 14 4.13438 14 8C14 9.75313 13.3562 11.3563 12.2906 12.5844L13.7687 14.3594C14.1219 14.7844 14.0656 15.4156 13.6406 15.7688C13.2156 16.1219 12.5844 16.0656 12.2312 15.6406L10.775 13.8938H10.7781Z" fill="#FFB300"/>
</g>
<defs>
<clipPath id="clip0_633_2885">
<rect width="14" height="16" fill="white"/>
</clipPath>
</defs>
</svg>
