<svg xmlns="http://www.w3.org/2000/svg" width="40" height="40" fill="none" viewBox="0 0 40 40">
  <path fill="#03A9F4" fill-rule="evenodd" d="M19.773 5.16a1.1 1.1 0 0 1 1.08-.035l3.302 1.72a1.101 1.101 0 0 1-.073 1.987l-2.637 1.135v2.327a1.1 1.1 0 0 1-2.202 0V6.1c0-.385.2-.742.53-.941Zm11.806 8.886a2.752 2.752 0 0 1 1.15 2.238v13.074a2.752 2.752 0 0 1-5.504 0V20.13l-4.266 1.453v10.665a2.753 2.753 0 0 1-3.66 2.598L9.116 31.292a2.752 2.752 0 0 1-1.845-2.598v-12.41a2.752 2.752 0 0 1 3.603-2.617l9.336 3.037 8.88-3.025a2.752 2.752 0 0 1 2.489.367ZM12.775 26.74v-6.665l4.679 1.522v6.776l-4.679-1.633Z" clip-rule="evenodd"/>
</svg>