<svg xmlns="http://www.w3.org/2000/svg" width="110" height="40" fill="none" viewBox="0 0 110 40">
  <path fill="#03A9F4" fill-rule="evenodd" d="M19.773 5.16a1.1 1.1 0 0 1 1.08-.035l3.302 1.72a1.101 1.101 0 0 1-.073 1.987l-2.637 1.135v2.327a1.1 1.1 0 0 1-2.202 0V6.1c0-.385.2-.742.53-.941Zm11.806 8.886a2.752 2.752 0 0 1 1.15 2.238v13.074a2.752 2.752 0 0 1-5.504 0V20.13l-4.266 1.453v10.665a2.753 2.753 0 0 1-3.66 2.598L9.116 31.292a2.752 2.752 0 0 1-1.845-2.598v-12.41a2.752 2.752 0 0 1 3.603-2.617l9.336 3.037 8.88-3.025a2.752 2.752 0 0 1 2.489.367ZM12.775 26.74v-6.665l4.679 1.522v6.776l-4.679-1.633Zm81.352 5.76c-.246 0-.365-.045-.418-.078-.033-.053-.078-.173-.078-.422v-3.639c0-.304.068-.389.076-.397.035-.035.138-.103.42-.103h5.066c.289 0 .363.07.373.082l.02.022.021.02c.012.01.082.085.082.376v3.64c0 .284-.068.389-.103.424-.007.007-.09.075-.393.075h-5.066Zm.21-6.58c-.025-.033-.088-.142-.13-.414l-.582-3.667c-.04-.258.002-.366.028-.406.06-.059.183-.13.444-.158h.009l5.513-.78h.002c.325-.043.665-.153.893-.42.224-.262.286-.61.286-.936 0-.336-.084-.68-.34-.936-.249-.25-.578-.342-.907-.342h-7.64c-.246 0-.365-.045-.418-.078-.033-.053-.078-.173-.078-.422v-3.36c0-.305.067-.39.075-.398.035-.035.139-.103.421-.103h8.941c1.713 0 2.988.408 3.885 1.16l.005.004c.876.72 1.339 1.768 1.339 3.225v2.917c0 1.486-.371 2.423-.988 2.954-.684.588-1.628.986-2.871 1.162h-.001l-7.491 1.026c-.251.026-.359-.01-.395-.029ZM64 12.334h-4.5v7.833H57v-4.5A2.667 2.667 0 0 0 54.333 13H43v17a2.667 2.667 0 0 0 2.667 2.667H57v-8.5h2.5v9.5H64V12.333ZM47.667 27.5V17H51c.736 0 1.333.597 1.333 1.334v10.5l-3.357-.017a1.316 1.316 0 0 1-1.31-1.317Z" clip-rule="evenodd"/>
  <path fill="#03A9F4" d="M84.75 13H68.333v4h14.584v10.667h4.5v-12A2.667 2.667 0 0 0 84.75 13Z"/>
  <path fill="#03A9F4" d="M79.167 22H74.5v7H67v4h22.083v-2a2 2 0 0 0-2-2h-7.916v-7Z"/>
</svg>